<?xml version="1.0" encoding="UTF-8" standalone="no"?>
<svg width="522px" height="208px" viewBox="0 0 522 208" version="1.1" xmlns="http://www.w3.org/2000/svg" xmlns:xlink="http://www.w3.org/1999/xlink" xmlns:sketch="http://www.bohemiancoding.com/sketch/ns">
    <!-- Generator: Sketch 3.3.3 (12072) - http://www.bohemiancoding.com/sketch -->
    <title>kickstarter-btn</title>
    <desc>Created with Sketch.</desc>
    <defs>
        <rect id="path-1" x="10" y="10" width="502" height="189" rx="64"></rect>
        <path id="path-2" d="M0,0.586666667 L373.12,0.586666667 L373.12,44 L0,44 L0,0.586666667 Z"></path>
    </defs>
    <g id="Page-1" stroke="none" stroke-width="1" fill="none" fill-rule="evenodd" sketch:type="MSPage">
        <g id="kickstarter-btn" sketch:type="MSArtboardGroup">
            <g id="Rectangle-1">
                <use stroke="#F8E81C" stroke-width="18" fill="#FFFFFF" fill-rule="evenodd" sketch:type="MSShapeGroup" xlink:href="#path-1"></use>
                <use stroke="none" fill="none" xlink:href="#path-1"></use>
            </g>
            <g id="kickstarter-logo-light" sketch:type="MSLayerGroup" transform="translate(74.146667, 105.000000)">
                <mask id="mask-3" sketch:name="Clip 2" fill="white">
                    <use xlink:href="#path-2"></use>
                </mask>
                <g id="Clip-2"></g>
                <path d="M111.211356,15.6404133 L118.89474,4.53748 C120.347233,2.44728226 122.22224,1.4009908 124.522153,1.4009908 C126.39716,1.4009908 128.020253,2.0656562 129.392229,3.39180676 C130.763407,4.72034249 131.448996,6.30886097 131.448996,8.15895232 C131.448996,9.52724077 131.086272,10.7333381 130.360026,11.7804246 L123.432385,21.8251406 L131.902602,32.535317 C132.749225,33.6022799 133.173333,34.848925 133.173333,36.2760475 C133.173333,38.1674817 132.507674,39.7909826 131.177152,41.1489353 C129.845036,42.506888 128.232307,43.1858644 126.33737,43.1858644 C124.259078,43.1858644 122.676642,42.5124534 121.586874,41.1640413 L111.211356,28.2515645 L111.211356,35.3712757 C111.211356,37.4034345 110.858995,38.9816173 110.152679,40.1082092 C108.862017,42.1602444 106.986213,43.1858644 104.526063,43.1858644 C102.287535,43.1858644 100.552834,42.4313579 99.3227594,40.9231399 C98.1732015,39.5349751 97.5984225,37.6944244 97.5984225,35.4022828 L97.5984225,9.00250493 C97.5984225,6.8320067 98.183565,5.04154443 99.3530529,3.63429832 C100.583128,2.14516162 102.277171,1.4009908 104.435183,1.4009908 C106.492748,1.4009908 108.205924,2.14516162 109.5779,3.63429832 C110.344006,4.45956468 110.827905,5.29278158 111.029596,6.1379243 C111.151567,6.66027497 111.211356,7.6358066 111.211356,9.06451917 L111.211356,15.6404133 L111.211356,15.6404133 Z M76.2710144,0.586855204 C81.2925575,0.566183792 85.9107191,2.24533847 90.125499,5.62431923 C93.4330688,8.27900552 95.0864552,11.0251231 95.0864552,13.8610817 C95.0864552,16.2740715 94.0780011,18.1448343 92.0618902,19.4717799 C90.9123323,20.2374172 89.6615304,20.6190433 88.3110789,20.6190433 C87.2013808,20.6190433 86.1427033,20.3574704 85.1342493,19.8343247 C84.7109378,19.6132996 83.6618267,18.5980152 81.9885104,16.7868815 C80.4347737,15.0973912 78.4888161,14.2522484 76.1506376,14.2522484 C73.8913817,14.2522484 72.0004307,15.0321967 70.4785818,16.5905031 C68.9551386,18.1496046 68.1946128,20.0553498 68.1946128,22.3085336 C68.1946128,24.5410461 68.9551386,26.4364555 70.4785818,27.995557 C72.0004307,29.5546585 73.8818153,30.3338117 76.119547,30.3338117 C77.9746241,30.3338117 79.698961,29.7096941 81.2925575,28.4630489 C82.2802845,27.5185244 83.2592422,26.5732049 84.2270392,25.6270903 C85.2753531,24.7215234 86.6066719,24.2691375 88.2201984,24.2691375 C90.0752756,24.2691375 91.6840189,24.9179018 93.0448339,26.2162255 C94.405649,27.512164 95.0864552,29.0863715 95.0864552,30.9364629 C95.0864552,33.4504245 93.6044662,35.9953933 90.639691,38.5689841 C86.485498,42.1896614 81.6855756,44 76.2407209,44 C72.8725641,44 69.6965317,43.2860412 66.7118266,41.8581237 C62.9402881,40.04699 59.9404363,37.3883285 57.7130682,33.8781638 C55.4833085,30.3687941 54.3696245,26.5318621 54.3696245,22.3681627 C54.3696245,16.134142 56.6886702,10.8239743 61.3275588,6.44004493 C65.4211648,2.57687611 70.4020509,0.626607919 76.2710144,0.586855204 L76.2710144,0.586855204 Z M51.7739514,9.81902569 L51.7739514,35.3712757 C51.7739514,37.5847069 51.1991725,39.4045862 50.0496146,40.8325037 C48.8195398,42.4011458 47.11593,43.1858644 44.937191,43.1858644 C42.94101,43.1858644 41.256533,42.4520293 39.8853543,40.983564 C38.7357964,39.7560002 38.1618147,37.8860325 38.1618147,35.3712757 L38.1618147,9.81902569 C38.1618147,6.96239561 38.7357964,4.89127916 39.8853543,3.60249615 C41.195946,2.13482592 42.880423,1.4009908 44.937191,1.4009908 C46.9947561,1.4009908 48.6784359,2.12528527 49.9898248,3.5738742 C51.1792426,4.90002476 51.7739514,6.98227196 51.7739514,9.81902569 L51.7739514,9.81902569 Z M13.6129339,15.6404133 L21.2963175,4.53748 C22.748013,2.44728226 24.6238173,1.4009908 26.9237303,1.4009908 C28.7987373,1.4009908 30.4218302,2.0656562 31.7930088,3.39180676 C33.1641874,4.72034249 33.850574,6.30886097 33.850574,8.15895232 C33.850574,9.52724077 33.4870522,10.7333381 32.761603,11.7804246 L25.8339621,21.8251406 L34.304179,32.535317 C35.1508021,33.6022799 35.5749108,34.848925 35.5749108,36.2760475 C35.5749108,38.1674817 34.9092514,39.7909826 33.5779326,41.1489353 C32.2466138,42.506888 30.6330873,43.1858644 28.7373532,43.1858644 C26.6606553,43.1858644 25.0782195,42.5124534 23.9884513,41.1640413 L13.6129339,28.2515645 L13.6129339,35.3712757 C13.6129339,37.4034345 13.2597757,38.9816173 12.5534593,40.1082092 C11.2627975,42.1602444 9.38779047,43.1858644 6.9268437,43.1858644 C4.68911205,43.1858644 2.95441164,42.4313579 1.72433685,40.9231399 C0.574778951,39.5349751 0,37.6944244 0,35.4022828 L0,9.00250493 C0,6.8320067 0.584345314,5.04154443 1.75463033,3.63429832 C2.98470512,2.14516162 4.6779513,1.4009908 6.83676045,1.4009908 C8.8935284,1.4009908 10.6075017,2.14516162 11.9794775,3.63429832 C12.7455837,4.45956468 13.2294822,5.29278158 13.431173,6.1379243 C13.5515498,6.66027497 13.6129339,7.6358066 13.6129339,9.06451917 L13.6129339,15.6404133 L13.6129339,15.6404133 Z" id="Fill-1" fill="#161D15" sketch:type="MSShapeGroup" mask="url(#mask-3)"></path>
                <path d="M368.573457,27.0151813 L371.786071,32.1433038 C372.675889,33.5712275 373.12,35.0396992 373.12,36.5479237 C373.12,38.4592425 372.457029,40.0422025 371.134282,41.2999839 C369.811535,42.5569702 368.190052,43.1858609 366.269833,43.1858609 C363.80406,43.1858609 361.934961,42.1395649 360.663335,40.0469729 L354.96498,30.755928 L354.96498,36.3372334 C354.96498,38.2485522 354.332362,39.8672898 353.070321,41.1942412 C351.807481,42.5219876 350.215552,43.1858609 348.296131,43.1858609 C345.95177,43.1858609 344.174529,42.3510502 342.962011,40.6806339 C341.870106,39.2129573 341.325351,37.2825571 341.325351,34.8886382 L341.325351,9.5167553 C341.325351,4.30753693 344.144176,1.70292775 349.781825,1.70292775 L358.449971,1.70292775 C361.299947,1.70292775 363.946239,2.52263229 366.391244,4.16204136 C368.83545,5.80145044 370.623874,7.92822992 371.755718,10.5431749 C372.6048,12.513328 373.028941,14.4946119 373.028941,16.4854365 C373.028941,20.2063067 371.544845,23.7164867 368.573457,27.0151813 L368.573457,27.0151813 Z M324.691171,30.1524792 L330.890348,30.1524792 C333.451972,30.1524792 335.357814,30.6756272 336.607075,31.7211281 C338.079989,32.9685737 338.816446,34.5769756 338.816446,36.5479237 C338.816446,38.5594198 338.077592,40.1884932 336.603081,41.4351437 C335.451269,42.4011389 333.562201,42.8837389 330.935878,42.8837389 L320.297191,42.8837389 C317.790682,42.8837389 316.073347,42.69213 315.14359,42.3105023 C313.324813,41.5663282 312.122679,40.3498899 311.537188,38.6595971 C311.172953,37.5735482 310.991635,35.794209 310.991635,33.3191942 L310.991635,10.9351383 C310.991635,9.06436745 311.052341,7.8081762 311.172953,7.16338437 C311.395009,5.85630943 311.930977,4.7503841 312.780059,3.84481332 C313.748955,2.81839377 314.982241,2.16565136 316.47752,1.8826108 C317.184423,1.76335214 318.618996,1.70292775 320.78124,1.70292775 L328.934983,1.70292775 C331.157134,1.70292775 332.451126,1.72280419 332.81536,1.76335214 C334.269903,1.90407736 335.460854,2.32625302 336.390611,3.02987913 C338.04724,4.27732474 338.876353,5.90639807 338.876353,7.91709911 C338.876353,10.0891969 338.15028,11.7492775 336.698932,12.8957507 C335.408136,13.9213752 333.645272,14.4341875 331.405549,14.4341875 L324.691171,14.4341875 L324.691171,17.2399463 L330.042065,17.2399463 C331.612428,17.2399463 332.912809,17.6517862 333.940813,18.4770561 C335.027926,19.3619554 335.573479,20.5783938 335.573479,22.1263712 C335.573479,25.4051894 333.566994,27.0453935 329.557218,27.0453935 L324.691171,27.0453935 L324.691171,30.1524792 L324.691171,30.1524792 Z M284.258729,14.3435509 L280.651529,14.3435509 C278.650634,14.3435509 276.994804,13.8013215 275.680844,12.7144776 C274.286209,11.5489229 273.588891,9.98981467 273.588891,8.03874295 C273.588891,6.87239323 273.91798,5.7513618 274.573762,4.67405855 C275.231142,3.59914048 276.079425,2.83429492 277.12021,2.38111201 C278.160994,1.92872415 280.629962,1.70292775 284.530308,1.70292775 L298.292147,1.70292775 C301.665311,1.70292775 303.848323,1.90407736 304.837987,2.30637658 C305.929093,2.74842869 306.814119,3.50850389 307.490669,4.58342197 C308.167219,5.65993016 308.505893,6.79129734 308.505893,7.9775235 C308.505893,9.84829439 307.758254,11.4781628 306.262975,12.8663336 C305.191837,13.8514102 303.444949,14.3435509 301.019913,14.3435509 L297.897559,14.3435509 L297.897559,34.8592211 C297.897559,37.0917432 297.513356,38.8201988 296.745747,40.0469729 C295.452555,42.0990169 293.582657,43.1246414 291.13925,43.1246414 C288.694245,43.1246414 286.814762,42.1896535 285.500802,40.3188826 C284.671688,39.1525329 284.258729,37.3835294 284.258729,35.009487 L284.258729,14.3435509 L284.258729,14.3435509 Z M268.049489,27.0151813 L271.262103,32.1433038 C272.151123,33.5712275 272.596032,35.0396992 272.596032,36.5479237 C272.596032,38.4592425 271.93386,40.0422025 270.610314,41.2999839 C269.286769,42.5569702 267.666084,43.1858609 265.747462,43.1858609 C263.280891,43.1858609 261.412591,42.1395649 260.138568,40.0469729 L254.439415,30.755928 L254.439415,36.3372334 C254.439415,38.2485522 253.809193,39.8672898 252.546353,41.1942412 C251.282714,42.5219876 249.691584,43.1858609 247.772163,43.1858609 C245.427802,43.1858609 243.650561,42.3510502 242.438043,40.6806339 C241.346937,39.2129573 240.801383,37.2825571 240.801383,34.8886382 L240.801383,9.5167553 C240.801383,4.30753693 243.620208,1.70292775 249.257857,1.70292775 L257.926802,1.70292775 C260.77518,1.70292775 263.42307,2.52263229 265.867276,4.16204136 C268.312281,5.80145044 270.100705,7.92822992 271.232549,10.5431749 C272.080033,12.513328 272.505772,14.4946119 272.505772,16.4854365 C272.505772,20.2063067 271.020078,23.7164867 268.049489,27.0151813 L268.049489,27.0151813 Z M211.386241,37.5441311 C210.738447,39.0722321 210.072281,40.2083696 209.385347,40.9525436 C208.01148,42.4408918 206.344467,43.1858609 204.38431,43.1858609 C201.980041,43.1858609 200.110943,42.2206608 198.777812,40.2886704 C197.989436,39.1429922 197.595647,37.8557937 197.595647,36.42787 C197.595647,35.2408488 197.878408,34.0434918 198.444729,32.8373892 L211.386241,5.41346226 C212.638697,2.73968305 214.729851,1.4008058 217.659704,1.4008058 C220.631092,1.4008058 222.762184,2.77784582 224.055376,5.53431104 L237.119898,33.1689283 C237.645482,34.2764437 237.907475,35.3712382 237.907475,36.4580822 C237.907475,38.066484 237.381092,39.4952028 236.330723,40.7410583 C234.956855,42.3717217 233.198784,43.1858609 231.057308,43.1858609 C229.299237,43.1858609 227.834311,42.6420414 226.661731,41.5559925 C225.79268,40.7529842 224.924427,39.4141069 224.055376,37.5441311 L211.386241,37.5441311 L211.386241,37.5441311 Z M178.226511,14.3435509 L174.620109,14.3435509 C172.619215,14.3435509 170.962586,13.8013215 169.649425,12.7144776 C168.254789,11.5489229 167.556673,9.98981467 167.556673,8.03874295 C167.556673,6.87239323 167.886561,5.7513618 168.542343,4.67405855 C169.198924,3.59914048 170.048006,2.83429492 171.088791,2.38111201 C172.129575,1.92872415 174.599341,1.70292775 178.499687,1.70292775 L192.260728,1.70292775 C195.633892,1.70292775 197.817702,1.90407736 198.807366,2.30637658 C199.898472,2.74842869 200.7827,3.50850389 201.458451,4.58342197 C202.136598,5.65993016 202.475273,6.79129734 202.475273,7.9775235 C202.475273,9.84829439 201.726835,11.4781628 200.231555,12.8663336 C199.161217,13.8514102 197.412731,14.3435509 194.988494,14.3435509 L191.865341,14.3435509 L191.865341,34.8592211 C191.865341,37.0917432 191.482735,38.8201988 190.714328,40.0469729 C189.420337,42.0990169 187.552036,43.1246414 185.10783,43.1246414 C182.662027,43.1246414 180.782544,42.1896535 179.469382,40.3188826 C178.641068,39.1525329 178.226511,37.3835294 178.226511,35.009487 L178.226511,14.3435509 L178.226511,14.3435509 Z M141.733555,27.3165082 C143.249602,27.3165082 144.865494,27.9803814 146.583627,29.3081279 C148.724304,30.9777491 150.190029,31.8109696 150.978406,31.8109696 C152.150187,31.8109696 152.735678,31.2083159 152.735678,30.0022133 C152.735678,29.33834 152.392211,28.7754392 151.706076,28.3119205 C151.341842,28.0702229 149.300211,27.2974268 145.582781,25.9887618 C139.501021,23.8572119 136.460141,19.9145205 136.460141,14.1622777 C136.460141,9.81887725 138.065649,6.38899812 141.279061,3.87502552 C144.087502,1.6830513 147.563706,0.586666667 151.706076,0.586666667 C155.282125,0.586666667 158.394095,1.4365834 161.041186,3.13562181 C163.688278,4.83466022 165.011823,7.02265915 165.011823,9.69723341 C165.011823,11.3072254 164.511799,12.6492828 163.511752,13.724996 C162.510905,14.8007091 161.212121,15.3381681 159.616198,15.3381681 C157.938802,15.3381681 156.080087,14.5447005 154.039255,12.9561751 C152.76683,11.9710986 151.80672,11.4781628 151.160523,11.4781628 C150.048649,11.4781628 149.492712,12.0203922 149.492712,13.106441 C149.492712,14.1328606 150.866579,15.0678485 153.615113,15.9121998 C157.414016,17.0992211 160.353454,18.5470212 162.435023,20.2563954 C165.203526,22.550137 166.588576,25.7677357 166.588576,29.9107816 C166.588576,34.4171689 165.031792,37.9360945 161.919822,40.4707387 C159.030707,42.8233145 155.271742,44 150.644524,44 C146.017306,44 142.18805,42.774021 139.157554,40.3188826 C136.733317,38.368606 135.52,36.0867902 135.52,33.4710502 C135.52,31.7211281 136.115875,30.2637873 137.309223,29.0966425 C138.500174,27.9302928 139.976283,27.3363846 141.733555,27.3165082 L141.733555,27.3165082 Z" id="Fill-3" fill="#2BDE73" sketch:type="MSShapeGroup" mask="url(#mask-3)"></path>
            </g>
            <text id="funded-with" sketch:type="MSTextLayer" font-family="ITC Avant Garde Gothic Pro" font-size="43" font-weight="bold" sketch:alignment="middle" fill="#353535">
                <tspan x="131.3175" y="84">funded with</tspan>
            </text>
        </g>
    </g>
</svg>