<?xml version="1.0" encoding="UTF-8" standalone="no"?>
<svg width="1105px" height="325px" viewBox="0 0 1105 325" version="1.1" xmlns="http://www.w3.org/2000/svg" xmlns:xlink="http://www.w3.org/1999/xlink" xmlns:sketch="http://www.bohemiancoding.com/sketch/ns">
    <!-- Generator: Sketch 3.3.2 (12043) - http://www.bohemiancoding.com/sketch -->
    <title>sp_by_sunhouse_logo</title>
    <desc>Created with Sketch.</desc>
    <defs></defs>
    <g id="Page-1" stroke="none" stroke-width="1" fill="none" fill-rule="evenodd" sketch:type="MSPage">
        <g id="sp_by_sunhouse_logo" sketch:type="MSLayerGroup">
            <g id="Group" sketch:type="MSShapeGroup">
                <path d="M398.1,131.1 C381.8,131.1 368.2,122.4 366.4,105.3 L389.6,105.3 C390.3,110.1 393.8,112.5 398.4,112.5 C401.9,112.5 406.5,110.5 406.5,106.5 C406.5,100.9 400.2,99.2 396,97.5 C392.6,96.4 389.3,95.3 385.9,94 C376.6,90.6 367.4,84.6 367.4,73.6 C367.4,57.3 382.6,47.9 397.6,47.9 C413.2,47.9 426,55.9 427.5,72.5 L404.6,72.5 C404.5,68.1 401.4,66.6 397.3,66.6 C394.2,66.6 390.7,68.3 390.7,71.8 C390.7,84 429.9,77.1 429.9,104.6 C429.8,122.1 413.9,131.1 398.1,131.1 L398.1,131.1 Z" id="Shape" fill="#353535"></path>
                <path d="M515.8,96.5 L457.4,96.5 C458.8,105.8 466.5,111.2 475.6,111.2 C481.9,111.2 486,108.7 489.8,103.9 L513.7,103.9 C507,119.5 493.2,130.8 475.7,130.8 C453,130.8 434.4,112.3 434.4,89.5 C434.4,66.9 452.4,47.7 475.2,47.7 C499.1,47.7 516.3,66.8 516.3,90.2 C516.4,92.5 516.3,94.4 515.8,96.5 L515.8,96.5 Z M475.4,67.5 C467,67.5 459.5,72.4 457.7,80.8 L493.1,80.8 C491.3,72.4 483.8,67.5 475.4,67.5 L475.4,67.5 Z" id="Shape" fill="#353535"></path>
                <path d="M572.6,128.4 L572.6,85.9 C572.6,77.2 570.9,69.8 560.4,69.8 C549.6,69.8 547.1,76.8 547.1,86.1 L547.1,128.5 L523.8,128.5 L523.8,50.5 L545.6,50.5 L545.6,58.8 L545.9,58.8 C550.8,50.8 557.7,47.9 567.1,47.9 C573.7,47.9 582,50.4 587,54.6 C594.4,60.8 596,70.6 596,79.7 L596,128.4 L572.6,128.4 L572.6,128.4 Z" id="Shape" fill="#353535"></path>
                <path d="M636.3,131.1 C620,131.1 606.4,122.4 604.6,105.3 L627.8,105.3 C628.5,110.1 632,112.5 636.6,112.5 C640.1,112.5 644.7,110.5 644.7,106.5 C644.7,100.9 638.4,99.2 634.2,97.5 C630.8,96.4 627.5,95.3 624.1,94 C614.8,90.6 605.6,84.6 605.6,73.6 C605.6,57.3 620.8,47.9 635.8,47.9 C651.4,47.9 664.2,55.9 665.7,72.5 L642.8,72.5 C642.7,68.1 639.6,66.6 635.5,66.6 C632.4,66.6 628.9,68.3 628.9,71.8 C628.9,84 668.1,77.1 668.1,104.6 C668,122.1 652.1,131.1 636.3,131.1 L636.3,131.1 Z" id="Shape" fill="#353535"></path>
                <path d="M715.5,130.8 C691.6,130.8 673.5,113.3 673.5,89.4 C673.5,65.5 691.6,48 715.5,48 C739.4,48 757.5,65.5 757.5,89.4 C757.5,113.3 739.3,130.8 715.5,130.8 L715.5,130.8 Z M715.5,69.7 C704.7,69.7 696.8,78.8 696.8,89.3 C696.8,99.8 704.7,108.9 715.5,108.9 C726.3,108.9 734.2,99.8 734.2,89.3 C734.2,78.8 726.3,69.7 715.5,69.7 L715.5,69.7 Z" id="Shape" fill="#353535"></path>
                <path d="M788,85.6 L788,128.4 L764.7,128.4 L764.7,50.5 L786.6,50.5 L786.6,58.8 L786.9,58.8 C791,50.8 797.4,47.9 806.4,47.9 L806.4,71.3 C796.1,71.6 788,73.5 788,85.6 L788,85.6 Z" id="Shape" fill="#353535"></path>
                <path d="M853.6,154.4 L828.9,154.4 L841.3,124.5 L812.4,50.5 L837.3,50.5 L852.9,95.7 L853.2,95.7 L868.1,50.5 L892.8,50.5 L853.6,154.4 L853.6,154.4 Z" id="Shape" fill="#353535"></path>
                <path d="M417.2,251.2 C407.9,251.2 400.1,248.4 393.8,241.5 L393.8,274.5 L370.5,274.5 L370.5,170.6 L392.4,170.6 L392.4,179.2 L392.5,179.2 L392.8,179.2 C398.8,171.6 407.5,168 417.1,168 C441.2,168 455.1,187.8 455.1,210.4 C455.1,232.1 439.9,251.2 417.2,251.2 L417.2,251.2 Z M412.3,189.7 C401.1,189.7 392.8,198.5 392.8,209.6 C392.8,220.6 401.2,229.4 412.3,229.4 C423.4,229.4 431.8,220.6 431.8,209.6 C431.8,198.6 423.5,189.7 412.3,189.7 L412.3,189.7 Z" id="Shape" fill="#353535"></path>
                <path d="M543.7,216.7 L485.3,216.7 C486.7,226 494.4,231.4 503.5,231.4 C509.8,231.4 513.9,228.9 517.7,224.1 L541.6,224.1 C534.9,239.7 521.1,251.1 503.6,251.1 C480.9,251.1 462.3,232.6 462.3,209.8 C462.3,187.2 480.3,168 503.1,168 C527,168 544.2,187.1 544.2,210.5 C544.3,212.6 544.1,214.6 543.7,216.7 L543.7,216.7 Z M503.3,187.6 C494.9,187.6 487.4,192.5 485.6,200.9 L521,200.9 C519.1,192.5 511.7,187.6 503.3,187.6 L503.3,187.6 Z" id="Shape" fill="#353535"></path>
                <path d="M575.1,205.7 L575.1,248.5 L551.8,248.5 L551.8,170.6 L573.7,170.6 L573.7,178.9 L574,178.9 C578.1,170.9 584.5,168 593.5,168 L593.5,191.4 C583.3,191.7 575.1,193.7 575.1,205.7 L575.1,205.7 Z" id="Shape" fill="#353535"></path>
                <path d="M637.6,251.1 C614.3,251.1 595.9,232.7 595.9,209.4 C595.9,186.4 613.9,168 637,168 C656.9,168 674.2,180.9 678.3,200.7 L654.7,200.7 C651.3,193.4 645.3,189.8 637.3,189.8 C626.1,189.8 619.3,199.1 619.3,209.6 C619.3,220.5 626.5,229.4 637.8,229.4 C645.5,229.4 651.1,225.7 654.6,219 L678.3,219 C674,238 657.2,251.1 637.6,251.1 L637.6,251.1 Z" id="Shape" fill="#353535"></path>
                <path d="M737.1,248.5 L737.1,240.2 L736.8,240.2 C732.7,248.6 725.3,251 716.6,251 C708,251 699.3,248.1 693.7,241.2 C687.4,233.3 686.7,226.9 686.7,217.2 L686.7,170.6 L710,170.6 L710,213.7 C710,222.5 712,229.3 722.5,229.3 C732.2,229.3 735.8,222.4 735.8,213.4 L735.8,170.6 L759.1,170.6 L759.1,248.5 L737.1,248.5 L737.1,248.5 Z" id="Shape" fill="#353535"></path>
                <path d="M798.9,251.2 C782.6,251.2 769,242.5 767.2,225.4 L790.4,225.4 C791.1,230.2 794.6,232.6 799.2,232.6 C802.7,232.6 807.3,230.6 807.3,226.6 C807.3,221 801,219.3 796.8,217.6 C793.4,216.5 790.1,215.4 786.7,214.1 C777.4,210.7 768.2,204.7 768.2,193.7 C768.2,177.4 783.4,168 798.4,168 C814,168 826.8,176 828.3,192.6 L805.4,192.6 C805.3,188.2 802.2,186.7 798.1,186.7 C795,186.7 791.5,188.4 791.5,191.9 C791.5,204.1 830.7,197.2 830.7,224.7 C830.6,242.2 814.7,251.2 798.9,251.2 L798.9,251.2 Z" id="Shape" fill="#353535"></path>
                <path d="M868.1,251.2 C851.8,251.2 838.2,242.5 836.4,225.4 L859.6,225.4 C860.3,230.2 863.8,232.6 868.4,232.6 C871.9,232.6 876.5,230.6 876.5,226.6 C876.5,221 870.2,219.3 866,217.6 C862.6,216.5 859.3,215.4 855.9,214.1 C846.6,210.7 837.4,204.7 837.4,193.7 C837.4,177.4 852.6,168 867.6,168 C883.2,168 896,176 897.5,192.6 L874.6,192.6 C874.5,188.2 871.4,186.7 867.3,186.7 C864.2,186.7 860.7,188.4 860.7,191.9 C860.7,204.1 899.9,197.2 899.9,224.7 C899.8,242.2 884,251.2 868.1,251.2 L868.1,251.2 Z" id="Shape" fill="#353535"></path>
                <path d="M907,162.4 L907,144.7 L930.3,144.7 L930.3,162.4 L907,162.4 L907,162.4 Z M907,248.5 L907,170.6 L930.3,170.6 L930.3,248.5 L907,248.5 L907,248.5 Z" id="Shape" fill="#353535"></path>
                <path d="M980.9,250.9 C957,250.9 938.9,233.4 938.9,209.5 C938.9,185.6 957,168.1 980.9,168.1 C1004.8,168.1 1022.9,185.6 1022.9,209.5 C1022.9,233.4 1004.8,250.9 980.9,250.9 L980.9,250.9 Z M980.9,189.9 C970.1,189.9 962.2,199 962.2,209.5 C962.2,220 970.1,229.1 980.9,229.1 C991.7,229.1 999.6,220 999.6,209.5 C999.6,199 991.8,189.9 980.9,189.9 L980.9,189.9 Z" id="Shape" fill="#353535"></path>
                <path d="M1079.8,248.5 L1079.8,206 C1079.8,197.3 1078.1,189.9 1067.6,189.9 C1056.8,189.9 1054.3,196.9 1054.3,206.2 L1054.3,248.6 L1031,248.6 L1031,170.7 L1052.8,170.7 L1052.8,179 L1053.1,179 C1058,171 1064.9,168.1 1074.3,168.1 C1080.9,168.1 1089.2,170.6 1094.2,174.8 C1101.6,181 1103.2,190.8 1103.2,199.9 L1103.2,248.6 L1079.8,248.6 L1079.8,248.5 Z" id="Shape" fill="#353535"></path>
                <path d="M743.9,306.8 C741.1,306.8 738.4,305.6 736.8,303.3 L736.7,303.3 L736.7,306.3 L732.9,306.3 L732.9,279 L736.7,279 L736.7,288.7 L736.8,288.7 C738.5,286.4 741,285.3 743.8,285.3 C749.7,285.3 754.4,290.2 754.4,296.1 C754.4,301.9 749.9,306.8 743.9,306.8 L743.9,306.8 Z M743.6,288.8 C739.7,288.8 736.6,292.1 736.6,296 C736.6,300 739.5,303.3 743.6,303.3 C747.5,303.3 750.6,299.9 750.6,296.1 C750.6,292.2 747.6,288.8 743.6,288.8 L743.6,288.8 Z" id="Shape" fill="#353535"></path>
                <path d="M763.8,313.1 L759.8,313.1 L762.8,305.9 L754.6,285.9 L758.7,285.9 L764.7,301.8 L770.9,285.9 L775,285.9 L763.8,313.1 L763.8,313.1 Z" id="Shape" fill="#353535"></path>
                <path d="M802.1,324.9 C794.2,324.9 787.5,320.7 786.6,312.3 L797.9,312.3 C798.2,314.6 799.9,315.8 802.2,315.8 C803.9,315.8 806.2,314.8 806.2,312.9 C806.2,310.2 803.1,309.3 801.1,308.5 C799.5,308 797.8,307.4 796.2,306.8 C791.7,305.2 787.2,302.2 787.2,296.9 C787.2,289 794.6,284.4 801.9,284.4 C809.5,284.4 815.7,288.3 816.5,296.4 L805.3,296.4 C805.2,294.3 803.7,293.5 801.7,293.5 C800.2,293.5 798.5,294.3 798.5,296 C798.5,302 817.6,298.6 817.6,312 C817.5,320.5 809.8,324.9 802.1,324.9 L802.1,324.9 Z" id="Shape" fill="#353535"></path>
                <path d="M846.3,323.6 L846.3,319.6 L846.2,319.6 C844.2,323.7 840.6,324.9 836.3,324.9 C832.1,324.9 827.9,323.5 825.1,320.1 C822,316.3 821.7,313.1 821.7,308.4 L821.7,285.7 L833.1,285.7 L833.1,306.7 C833.1,311 834.1,314.3 839.2,314.3 C843.9,314.3 845.7,310.9 845.7,306.6 L845.7,285.7 L857,285.7 L857,323.7 L846.3,323.7 L846.3,323.6 Z" id="Shape" fill="#353535"></path>
                <path d="M887.7,323.6 L887.7,302.9 C887.7,298.7 886.9,295 881.7,295 C876.4,295 875.2,298.4 875.2,302.9 L875.2,323.6 L863.8,323.6 L863.8,285.6 L874.4,285.6 L874.4,289.6 L874.5,289.6 C876.9,285.7 880.2,284.3 884.8,284.3 C888,284.3 892.1,285.5 894.5,287.6 C898.1,290.6 898.9,295.4 898.9,299.9 L898.9,323.7 L887.7,323.7 L887.7,323.6 Z" id="Shape" fill="#353535"></path>
                <path d="M929.6,323.6 L929.6,303 C929.6,298.9 928.4,295.1 923.5,295.1 C918.6,295.1 917.1,298.3 917.1,302.6 L917.1,323.7 L905.7,323.7 L905.7,273 L917.1,273 L917.1,289.2 L917.2,289.2 C919.2,285.6 923.2,284.4 927,284.4 C930.7,284.4 934.9,285.7 937.3,288.6 C940.9,292.8 940.9,297.3 940.9,302.5 L940.9,323.7 L929.6,323.7 L929.6,323.6 Z" id="Shape" fill="#353535"></path>
                <path d="M966.4,324.8 C954.8,324.8 945.9,316.2 945.9,304.6 C945.9,293 954.7,284.4 966.4,284.4 C978,284.4 986.9,293 986.9,304.6 C986.8,316.2 978,324.8 966.4,324.8 L966.4,324.8 Z M966.4,295 C961.1,295 957.3,299.5 957.3,304.6 C957.3,309.7 961.1,314.2 966.4,314.2 C971.7,314.2 975.5,309.7 975.5,304.6 C975.5,299.5 971.6,295 966.4,295 L966.4,295 Z" id="Shape" fill="#353535"></path>
                <path d="M1016.3,323.6 L1016.3,319.6 L1016.2,319.6 C1014.2,323.7 1010.6,324.9 1006.3,324.9 C1002.1,324.9 997.9,323.5 995.1,320.1 C992,316.3 991.7,313.1 991.7,308.4 L991.7,285.7 L1003.1,285.7 L1003.1,306.7 C1003.1,311 1004.1,314.3 1009.2,314.3 C1013.9,314.3 1015.7,310.9 1015.7,306.6 L1015.7,285.7 L1027.1,285.7 L1027.1,323.7 L1016.3,323.7 L1016.3,323.6 Z" id="Shape" fill="#353535"></path>
                <path d="M1046.9,324.9 C1039,324.9 1032.3,320.7 1031.4,312.3 L1042.7,312.3 C1043,314.6 1044.8,315.8 1047,315.8 C1048.7,315.8 1051,314.8 1051,312.9 C1051,310.2 1047.9,309.3 1045.9,308.5 C1044.3,308 1042.6,307.4 1041,306.8 C1036.5,305.2 1032,302.2 1032,296.9 C1032,289 1039.4,284.4 1046.7,284.4 C1054.3,284.4 1060.5,288.3 1061.3,296.4 L1050.1,296.4 C1050,294.3 1048.5,293.5 1046.5,293.5 C1045,293.5 1043.3,294.3 1043.3,296 C1043.3,302 1062.4,298.6 1062.4,312 C1062.4,320.5 1054.7,324.9 1046.9,324.9 L1046.9,324.9 Z" id="Shape" fill="#353535"></path>
                <path d="M1104.4,308.1 L1075.9,308.1 C1076.6,312.6 1080.3,315.3 1084.8,315.3 C1087.9,315.3 1089.9,314.1 1091.7,311.7 L1103.3,311.7 C1100,319.3 1093.3,324.8 1084.7,324.8 C1073.6,324.8 1064.6,315.8 1064.6,304.7 C1064.6,293.7 1073.4,284.3 1084.5,284.3 C1096.1,284.3 1104.6,293.6 1104.6,305 C1104.6,306.1 1104.6,307.1 1104.4,308.1 L1104.4,308.1 Z M1084.6,293.9 C1080.5,293.9 1076.9,296.3 1076,300.4 L1093.3,300.4 C1092.4,296.3 1088.8,293.9 1084.6,293.9 L1084.6,293.9 Z" id="Shape" fill="#353535"></path>
                <g id="Shape" fill="#F1E737">
                    <path d="M185.4,137.5 C182.4,148.6 172.2,156.7 160.5,156.7 L160.4,156.7 C146.2,156.6 134.6,145 134.7,130.8 C134.8,116.6 146.4,105.1 160.5,105.1 C172.4,105.1 182.4,113.1 185.4,124.3 L316.2,124.3 C299.5,53.4 236.5,0.5 161.2,0.2 C72.8,-0.1 0.9,71.9 0.5,161.2 C0.4,174.4 2,187.1 4.9,199.4 L135.7,199.4 C138.7,188.3 148.9,180.2 160.6,180.2 C174.9,180.3 186.5,191.9 186.4,206.1 C186.3,220.3 174.8,231.8 160.6,231.8 L160.5,231.8 C148.7,231.8 138.7,223.8 135.7,212.6 L8.7,212.6 C29.7,276.7 89.4,323.1 160,323.4 C248.4,323.8 320.3,251.7 320.7,162.4 C320.7,153.9 320.1,145.6 318.9,137.5 L185.4,137.5 L185.4,137.5 Z"></path>
                    <path d="M166.9,206 C166.9,209.5 164.1,212.3 160.6,212.3 C157.1,212.3 154.3,209.5 154.3,206 C154.3,202.5 157.1,199.7 160.6,199.7 C164.1,199.7 166.9,202.5 166.9,206 L166.9,206 Z"></path>
                    <path d="M166.9,130.6 C166.9,134.1 164.1,136.9 160.6,136.9 C157.1,136.9 154.3,134.1 154.3,130.6 C154.3,127.1 157.1,124.3 160.6,124.3 C164.1,124.3 166.9,127.1 166.9,130.6 L166.9,130.6 Z"></path>
                </g>
            </g>
        </g>
    </g>
</svg>
