<?xml version="1.0" encoding="utf-8"?>
<!-- Generator: Adobe Illustrator 18.1.0, SVG Export Plug-In . SVG Version: 6.00 Build 0)  -->
<svg version="1.1" id="Layer_1" xmlns="http://www.w3.org/2000/svg" xmlns:xlink="http://www.w3.org/1999/xlink" x="0px" y="0px"
	 viewBox="0 0 1158.1 375" enable-background="new 0 0 1158.1 375" xml:space="preserve">
<g>
	<path fill="#FFFFFF" d="M423.1,156.1c-16.3,0-29.9-8.7-31.7-25.8h23.2c0.7,4.8,4.2,7.2,8.8,7.2c3.5,0,8.1-2,8.1-6
		c0-5.6-6.3-7.3-10.5-9c-3.4-1.1-6.7-2.2-10.1-3.5c-9.3-3.4-18.5-9.4-18.5-20.4c0-16.3,15.2-25.7,30.2-25.7c15.6,0,28.4,8,29.9,24.6
		h-22.9c-0.1-4.4-3.2-5.9-7.3-5.9c-3.1,0-6.6,1.7-6.6,5.2c0,12.2,39.2,5.3,39.2,32.8C454.8,147.1,438.9,156.1,423.1,156.1z"/>
	<path fill="#FFFFFF" d="M540.8,121.5h-58.4c1.4,9.3,9.1,14.7,18.2,14.7c6.3,0,10.4-2.5,14.2-7.3h23.9c-6.7,15.6-20.5,26.9-38,26.9
		c-22.7,0-41.3-18.5-41.3-41.3c0-22.6,18-41.8,40.8-41.8c23.9,0,41.1,19.1,41.1,42.5C541.4,117.5,541.3,119.4,540.8,121.5z
		 M500.4,92.5c-8.4,0-15.9,4.9-17.7,13.3h35.4C516.3,97.4,508.8,92.5,500.4,92.5z"/>
	<path fill="#FFFFFF" d="M597.6,153.4v-42.5c0-8.7-1.7-16.1-12.2-16.1c-10.8,0-13.3,7-13.3,16.3v42.4h-23.3V75.5h21.8v8.3h0.3
		c4.9-8,11.8-10.9,21.2-10.9c6.6,0,14.9,2.5,19.9,6.7c7.4,6.2,9,16,9,25.1v48.7H597.6z"/>
	<path fill="#FFFFFF" d="M661.3,156.1c-16.3,0-29.9-8.7-31.7-25.8h23.2c0.7,4.8,4.2,7.2,8.8,7.2c3.5,0,8.1-2,8.1-6
		c0-5.6-6.3-7.3-10.5-9c-3.4-1.1-6.7-2.2-10.1-3.5c-9.3-3.4-18.5-9.4-18.5-20.4c0-16.3,15.2-25.7,30.2-25.7c15.6,0,28.4,8,29.9,24.6
		h-22.9c-0.1-4.4-3.2-5.9-7.3-5.9c-3.1,0-6.6,1.7-6.6,5.2c0,12.2,39.2,5.3,39.2,32.8C693,147.1,677.1,156.1,661.3,156.1z"/>
	<path fill="#FFFFFF" d="M740.5,155.8c-23.9,0-42-17.5-42-41.4s18.1-41.4,42-41.4s42,17.5,42,41.4S764.3,155.8,740.5,155.8z
		 M740.5,94.7c-10.8,0-18.7,9.1-18.7,19.6s7.9,19.6,18.7,19.6s18.7-9.1,18.7-19.6S751.3,94.7,740.5,94.7z"/>
	<path fill="#FFFFFF" d="M813,110.6v42.8h-23.3V75.5h21.9v8.3h0.3c4.1-8,10.5-10.9,19.5-10.9v23.4C821.1,96.6,813,98.5,813,110.6z"
		/>
	<path fill="#FFFFFF" d="M878.6,179.4h-24.7l12.4-29.9l-28.9-74h24.9l15.6,45.2h0.3l14.9-45.2h24.7L878.6,179.4z"/>
	<path fill="#FFFFFF" d="M442.2,276.2c-9.3,0-17.1-2.8-23.4-9.7v33h-23.3V195.6h21.9v8.6h0.1h0.3c6-7.6,14.7-11.2,24.3-11.2
		c24.1,0,38,19.8,38,42.4C480.1,257.1,464.9,276.2,442.2,276.2z M437.3,214.7c-11.2,0-19.5,8.8-19.5,19.9c0,11,8.4,19.8,19.5,19.8
		s19.5-8.8,19.5-19.8C456.8,223.6,448.5,214.7,437.3,214.7z"/>
	<path fill="#FFFFFF" d="M568.7,241.7h-58.4c1.4,9.3,9.1,14.7,18.2,14.7c6.3,0,10.4-2.5,14.2-7.3h23.9c-6.7,15.6-20.5,27-38,27
		c-22.7,0-41.3-18.5-41.3-41.3c0-22.6,18-41.8,40.8-41.8c23.9,0,41.1,19.1,41.1,42.5C569.3,237.6,569.1,239.6,568.7,241.7z
		 M528.3,212.6c-8.4,0-15.9,4.9-17.7,13.3H546C544.1,217.5,536.7,212.6,528.3,212.6z"/>
	<path fill="#FFFFFF" d="M600.1,230.7v42.8h-23.3v-77.9h21.9v8.3h0.3c4.1-8,10.5-10.9,19.5-10.9v23.4
		C608.3,216.7,600.1,218.7,600.1,230.7z"/>
	<path fill="#FFFFFF" d="M662.6,276.1c-23.3,0-41.7-18.4-41.7-41.7c0-23,18-41.4,41.1-41.4c19.9,0,37.2,12.9,41.3,32.7h-23.6
		c-3.4-7.3-9.4-10.9-17.4-10.9c-11.2,0-18,9.3-18,19.8c0,10.9,7.2,19.8,18.5,19.8c7.7,0,13.3-3.7,16.8-10.4h23.7
		C699,263,682.2,276.1,662.6,276.1z"/>
	<path fill="#FFFFFF" d="M762.1,273.5v-8.3h-0.3c-4.1,8.4-11.5,10.8-20.2,10.8c-8.6,0-17.3-2.9-22.9-9.8c-6.3-7.9-7-14.3-7-24v-46.6
		H735v43.1c0,8.8,2,15.6,12.5,15.6c9.7,0,13.3-6.9,13.3-15.9v-42.8h23.3v77.9H762.1z"/>
	<path fill="#FFFFFF" d="M823.9,276.2c-16.3,0-29.9-8.7-31.7-25.8h23.2c0.7,4.8,4.2,7.2,8.8,7.2c3.5,0,8.1-2,8.1-6
		c0-5.6-6.3-7.3-10.5-9c-3.4-1.1-6.7-2.2-10.1-3.5c-9.3-3.4-18.5-9.4-18.5-20.4c0-16.3,15.2-25.7,30.2-25.7c15.6,0,28.4,8,29.9,24.6
		h-22.9c-0.1-4.4-3.2-5.9-7.3-5.9c-3.1,0-6.6,1.7-6.6,5.2c0,12.2,39.2,5.3,39.2,32.8C855.6,267.2,839.7,276.2,823.9,276.2z"/>
	<path fill="#FFFFFF" d="M893.1,276.2c-16.3,0-29.9-8.7-31.7-25.8h23.2c0.7,4.8,4.2,7.2,8.8,7.2c3.5,0,8.1-2,8.1-6
		c0-5.6-6.3-7.3-10.5-9c-3.4-1.1-6.7-2.2-10.1-3.5c-9.3-3.4-18.5-9.4-18.5-20.4c0-16.3,15.2-25.7,30.2-25.7c15.6,0,28.4,8,29.9,24.6
		h-22.9c-0.1-4.4-3.2-5.9-7.3-5.9c-3.1,0-6.6,1.7-6.6,5.2c0,12.2,39.2,5.3,39.2,32.8C924.8,267.2,909,276.2,893.1,276.2z"/>
	<path fill="#FFFFFF" d="M932,187.4v-17.7h23.3v17.7H932z M932,273.5v-77.9h23.3v77.9H932z"/>
	<path fill="#FFFFFF" d="M1005.9,275.9c-23.9,0-42-17.5-42-41.4c0-23.9,18.1-41.4,42-41.4c23.9,0,42,17.5,42,41.4
		C1047.9,258.4,1029.8,275.9,1005.9,275.9z M1005.9,214.9c-10.8,0-18.7,9.1-18.7,19.6s7.9,19.6,18.7,19.6s18.7-9.1,18.7-19.6
		S1016.8,214.9,1005.9,214.9z"/>
	<path fill="#FFFFFF" d="M1104.8,273.5V231c0-8.7-1.7-16.1-12.2-16.1c-10.8,0-13.3,7-13.3,16.3v42.4h-23.3v-77.9h21.8v8.3h0.3
		c4.9-8,11.8-10.9,21.2-10.9c6.6,0,14.9,2.5,19.9,6.7c7.4,6.2,9,16,9,25.1v48.7H1104.8z"/>
	<path fill="#FFFFFF" d="M768.9,331.8c-2.8,0-5.5-1.2-7.1-3.5h-0.1v3h-3.8V304h3.8v9.7h0.1c1.7-2.3,4.2-3.4,7-3.4
		c5.9,0,10.6,4.9,10.6,10.8C779.4,326.9,774.9,331.8,768.9,331.8z M768.6,313.8c-3.9,0-7,3.3-7,7.2c0,4,2.9,7.3,7,7.3
		c3.9,0,7-3.4,7-7.2C775.6,317.2,772.6,313.8,768.6,313.8z"/>
	<path fill="#FFFFFF" d="M788.8,338.1h-4l3-7.2l-8.2-20h4.1l6,15.9l6.2-15.9h4.1L788.8,338.1z"/>
	<path fill="#FFFFFF" d="M827.1,349.9c-7.9,0-14.6-4.2-15.5-12.6h11.3c0.3,2.3,2,3.5,4.3,3.5c1.7,0,4-1,4-2.9c0-2.7-3.1-3.6-5.1-4.4
		c-1.6-0.5-3.3-1.1-4.9-1.7c-4.5-1.6-9-4.6-9-9.9c0-7.9,7.4-12.5,14.7-12.5c7.6,0,13.8,3.9,14.6,12h-11.2c-0.1-2.1-1.6-2.9-3.6-2.9
		c-1.5,0-3.2,0.8-3.2,2.5c0,6,19.1,2.6,19.1,16C842.5,345.5,834.8,349.9,827.1,349.9z"/>
	<path fill="#FFFFFF" d="M871.3,348.6v-4h-0.1c-2,4.1-5.6,5.3-9.9,5.3c-4.2,0-8.4-1.4-11.2-4.8c-3.1-3.8-3.4-7-3.4-11.7v-22.7h11.4
		v21c0,4.3,1,7.6,6.1,7.6c4.7,0,6.5-3.4,6.5-7.7v-20.9H882v38H871.3z"/>
	<path fill="#FFFFFF" d="M912.7,348.6v-20.7c0-4.2-0.8-7.9-6-7.9c-5.3,0-6.5,3.4-6.5,7.9v20.7h-11.4v-38h10.6v4h0.1
		c2.4-3.9,5.7-5.3,10.3-5.3c3.2,0,7.3,1.2,9.7,3.3c3.6,3,4.4,7.8,4.4,12.3v23.8H912.7z"/>
	<path fill="#FFFFFF" d="M954.6,348.6V328c0-4.1-1.2-7.9-6.1-7.9c-4.9,0-6.4,3.2-6.4,7.5v21.1h-11.4V298h11.4v16.2h0.1
		c2-3.6,6-4.8,9.8-4.8c3.7,0,7.9,1.3,10.3,4.2c3.6,4.2,3.6,8.7,3.6,13.9v21.2H954.6z"/>
	<path fill="#FFFFFF" d="M991.4,349.8c-11.6,0-20.5-8.6-20.5-20.2c0-11.6,8.8-20.2,20.5-20.2c11.6,0,20.5,8.6,20.5,20.2
		C1011.8,341.2,1003,349.8,991.4,349.8z M991.4,320c-5.3,0-9.1,4.5-9.1,9.6c0,5.1,3.8,9.6,9.1,9.6c5.3,0,9.1-4.5,9.1-9.6
		C1000.5,324.5,996.6,320,991.4,320z"/>
	<path fill="#FFFFFF" d="M1041.3,348.6v-4h-0.1c-2,4.1-5.6,5.3-9.9,5.3c-4.2,0-8.4-1.4-11.2-4.8c-3.1-3.8-3.4-7-3.4-11.7v-22.7h11.4
		v21c0,4.3,1,7.6,6.1,7.6c4.7,0,6.5-3.4,6.5-7.7v-20.9h11.4v38H1041.3z"/>
	<path fill="#FFFFFF" d="M1071.9,349.9c-7.9,0-14.6-4.2-15.5-12.6h11.3c0.3,2.3,2.1,3.5,4.3,3.5c1.7,0,4-1,4-2.9
		c0-2.7-3.1-3.6-5.1-4.4c-1.6-0.5-3.3-1.1-4.9-1.7c-4.5-1.6-9-4.6-9-9.9c0-7.9,7.4-12.5,14.7-12.5c7.6,0,13.8,3.9,14.6,12h-11.2
		c-0.1-2.1-1.6-2.9-3.6-2.9c-1.5,0-3.2,0.8-3.2,2.5c0,6,19.1,2.6,19.1,16C1087.4,345.5,1079.7,349.9,1071.9,349.9z"/>
	<path fill="#FFFFFF" d="M1129.4,333.1h-28.5c0.7,4.5,4.4,7.2,8.9,7.2c3.1,0,5.1-1.2,6.9-3.6h11.6c-3.3,7.6-10,13.1-18.6,13.1
		c-11.1,0-20.1-9-20.1-20.1c0-11,8.8-20.4,19.9-20.4c11.6,0,20.1,9.3,20.1,20.7C1129.6,331.1,1129.6,332.1,1129.4,333.1z
		 M1109.6,318.9c-4.1,0-7.7,2.4-8.6,6.5h17.3C1117.4,321.3,1113.8,318.9,1109.6,318.9z"/>
	<g>
		<g>
			<path fill="#FEE601" d="M210.4,162.5c-3,11.1-13.2,19.2-24.9,19.2h-0.1c-14.2-0.1-25.8-11.7-25.7-25.9
				c0.1-14.2,11.7-25.7,25.8-25.7c11.9,0,21.9,8,24.9,19.2h130.8c-16.7-70.9-79.7-123.8-155-124.1c-88.4-0.3-160.3,71.7-160.7,161
				c-0.1,13.2,1.5,25.9,4.4,38.2h130.8c3-11.1,13.2-19.2,24.9-19.2c14.3,0.1,25.9,11.7,25.8,25.9c-0.1,14.2-11.6,25.7-25.8,25.7
				h-0.1c-11.8,0-21.8-8-24.8-19.2h-127c21,64.1,80.7,110.5,151.3,110.8c88.4,0.4,160.3-71.7,160.7-161c0-8.5-0.6-16.8-1.8-24.9
				H210.4z"/>
			<path fill="#FEE601" d="M191.9,231c0,3.5-2.8,6.3-6.3,6.3c-3.5,0-6.3-2.8-6.3-6.3c0-3.5,2.8-6.3,6.3-6.3
				C189.1,224.7,191.9,227.5,191.9,231z"/>
			<path fill="#FEE601" d="M191.9,155.6c0,3.5-2.8,6.3-6.3,6.3c-3.5,0-6.3-2.8-6.3-6.3c0-3.5,2.8-6.3,6.3-6.3
				C189.1,149.3,191.9,152.1,191.9,155.6z"/>
		</g>
	</g>
</g>
</svg>
