<?xml version="1.0" encoding="utf-8"?>
<!-- Generator: Adobe Illustrator 18.1.0, SVG Export Plug-In . SVG Version: 6.00 Build 0)  -->
<svg version="1.1" id="Layer_1" xmlns="http://www.w3.org/2000/svg" xmlns:xlink="http://www.w3.org/1999/xlink" x="0px" y="0px"
	 viewBox="0 0 360 366" enable-background="new 0 0 360 366" xml:space="preserve">
<g>
	<g>
		<path fill="#0D2BBB" d="M204.9,158.7c-3,11.1-13.2,19.2-24.9,19.2h-0.1c-14.2-0.1-25.8-11.7-25.7-25.9
			c0.1-14.2,11.7-25.7,25.8-25.7c11.9,0,21.9,8,24.9,19.2h130.8C319,74.5,256,21.7,180.6,21.4C92.3,21,20.3,93.1,20,182.4
			c-0.1,13.2,1.5,25.9,4.4,38.2h130.8c3-11.1,13.2-19.2,24.9-19.2c14.3,0.1,25.9,11.7,25.8,25.9c-0.1,14.2-11.6,25.7-25.8,25.7h-0.1
			c-11.8,0-21.8-8-24.8-19.2h-127c21,64.1,80.7,110.5,151.3,110.8c88.4,0.4,160.3-71.7,160.7-161c0-8.5-0.6-16.8-1.8-24.9H204.9z"/>
		<path fill="#0D2BBB" d="M186.4,227.2c0,3.5-2.8,6.3-6.3,6.3c-3.5,0-6.3-2.8-6.3-6.3c0-3.5,2.8-6.3,6.3-6.3
			C183.6,220.9,186.4,223.8,186.4,227.2z"/>
		<path fill="#0D2BBB" d="M186.4,151.8c0,3.5-2.8,6.3-6.3,6.3c-3.5,0-6.3-2.8-6.3-6.3c0-3.5,2.8-6.3,6.3-6.3
			C183.6,145.5,186.4,148.4,186.4,151.8z"/>
	</g>
</g>
</svg>
