<?xml version="1.0" encoding="utf-8"?>
<!-- Generator: Adobe Illustrator 16.0.0, SVG Export Plug-In . SVG Version: 6.00 Build 0)  -->
<!DOCTYPE svg PUBLIC "-//W3C//DTD SVG 1.1//EN" "http://www.w3.org/Graphics/SVG/1.1/DTD/svg11.dtd">
<svg version="1.1" id="Layer_1" xmlns="http://www.w3.org/2000/svg" xmlns:xlink="http://www.w3.org/1999/xlink" x="0px" y="0px"
	 width="544.347px" height="549.445px" viewBox="33.993 121.277 544.347 549.445"
	 enable-background="new 33.993 121.277 544.347 549.445" xml:space="preserve">
<g>
	<g>
		<path fill="#FFFFFF" d="M348.33,354.69c-5.1,18.87-22.44,32.64-42.33,32.64h-0.17c-24.14-0.17-43.86-19.89-43.69-44.03
			c0.17-24.14,19.89-43.69,43.86-43.69c20.23,0,37.23,13.6,42.33,32.64h222.36C542.3,211.55,435.2,121.79,307.02,121.28
			C156.91,120.6,34.51,243.17,34,394.98c-0.17,22.44,2.55,44.03,7.48,64.94h222.36c5.1-18.87,22.44-32.64,42.33-32.64
			c24.311,0.17,44.03,19.89,43.86,44.029C349.86,495.45,330.31,515,306.17,515H306c-20.06,0-37.06-13.6-42.16-32.64H47.94
			c35.7,108.97,137.19,187.85,257.21,188.359c150.28,0.681,272.51-121.89,273.19-273.7c0-14.45-1.02-28.56-3.06-42.33H348.33
			L348.33,354.69z"/>
		<path fill="#FFFFFF" d="M316.88,471.14c0,5.95-4.76,10.71-10.71,10.71c-5.95,0-10.71-4.76-10.71-10.71
			c0-5.949,4.76-10.71,10.71-10.71C312.12,460.43,316.88,465.36,316.88,471.14z"/>
		<path fill="#FFFFFF" d="M316.88,342.96c0,5.95-4.76,10.71-10.71,10.71c-5.95,0-10.71-4.76-10.71-10.71
			c0-5.95,4.76-10.71,10.71-10.71C312.12,332.25,316.88,337.18,316.88,342.96z"/>
	</g>
</g>
</svg>
